# xmcd
#
# Track frame offsets:
#	150
#	6902
#	22693
#	37804
#	58867
#	77929
#	101595
#	120749
#	134189
#	173276
#	188707
#	203489
#	218103
#	233461
#	259422
#	275553
#
# Disc length: 3855 seconds
#
# Revision: 4
# Processed by: cddbd v1.5.2PL0 Copyright (c) Steve Scherf et al.
# Submitted via: EasyCDDAExtractor 15.3.0.1
#
DISCID=d40f0d10
DTITLE=Ana Gabriel - ...En La Plaza De Toros Mexico - CD 1
DYEAR=1998
DGENRE=Latin
TTITLE0=Danza De Angeles
TTITLE1=Pecado Original
TTITLE2=Esta Noche
TTITLE3=No Te Hago Falta
TTITLE4=Destino
TTITLE5=Solo Fantasia
TTITLE6=Evidencias
TTITLE7=Hasta Que Te Conoci
TTITLE8=Popurri Pop (Soledad, Ni Un Roce, Mar Y Arena, Ay Amor)
TTITLE9=Rayando El Sol
TTITLE10=Clemencia
TTITLE11=Un Viejo Amor
TTITLE12=Valentin De La Sierra
TTITLE13=Mi Talisman, Vamonos
TTITLE14=Paz En Este Amor
TTITLE15=Me Equivoque Contigo
EXTD=\nYEAR: 1998  ID3G:  81
EXTT0=
EXTT1=
EXTT2=
EXTT3=
EXTT4=
EXTT5=
EXTT6=
EXTT7=
EXTT8=
EXTT9=
EXTT10=
EXTT11=
EXTT12=
EXTT13=
EXTT14=
EXTT15=
PLAYORDER=
